<svg width="1932" height="466" viewBox="0 0 1932 466" fill="none" xmlns="http://www.w3.org/2000/svg">
<path d="M1891.29 371V116.21H1931.65V371H1891.29Z" fill="white"/>
<path d="M1631.93 371L1721.53 116.21H1771.46L1861.07 371H1817.97L1798.48 313.886H1694.85L1675.02 371H1631.93ZM1706.48 277.976H1786.17L1741.02 144.596H1752.31L1706.48 277.976Z" fill="white"/>
<path d="M1566.91 371V112.106H1605.55V371H1566.91Z" fill="white"/>
<path d="M1444.03 375.104C1425.56 375.104 1409.15 370.886 1394.78 362.45C1380.65 353.786 1369.59 342.158 1361.61 327.566C1353.63 312.746 1349.64 296.216 1349.64 277.976C1349.64 259.28 1353.63 242.75 1361.61 228.386C1369.82 214.022 1380.76 202.736 1394.44 194.528C1408.12 186.092 1423.63 181.874 1440.95 181.874C1454.86 181.874 1467.29 184.268 1478.23 189.056C1489.18 193.844 1498.41 200.456 1505.93 208.892C1513.46 217.1 1519.16 226.562 1523.03 237.278C1527.14 247.994 1529.19 259.394 1529.19 271.478C1529.19 274.442 1529.08 277.52 1528.85 280.712C1528.62 283.904 1528.16 286.868 1527.48 289.604H1380.08V258.824H1505.59L1487.12 272.846C1489.4 261.674 1488.61 251.756 1484.73 243.092C1481.08 234.2 1475.38 227.246 1467.63 222.23C1460.11 216.986 1451.21 214.364 1440.95 214.364C1430.69 214.364 1421.57 216.986 1413.59 222.23C1405.61 227.246 1399.46 234.542 1395.13 244.118C1390.79 253.466 1389.08 264.866 1390 278.318C1388.86 290.858 1390.57 301.802 1395.13 311.15C1399.91 320.498 1406.53 327.794 1414.96 333.038C1423.63 338.282 1433.43 340.904 1444.37 340.904C1455.55 340.904 1465.01 338.396 1472.76 333.38C1480.74 328.364 1487.01 321.866 1491.57 313.886L1523.03 329.276C1519.39 337.94 1513.69 345.806 1505.93 352.874C1498.41 359.714 1489.29 365.186 1478.57 369.29C1468.09 373.166 1456.57 375.104 1444.03 375.104Z" fill="white"/>
<path d="M1042.88 371V185.978H1079.82V225.992L1075.03 219.836C1078.91 207.296 1085.98 197.834 1096.24 191.45C1106.5 185.066 1118.24 181.874 1131.46 181.874C1146.28 181.874 1159.39 185.864 1170.79 193.844C1182.42 201.596 1190.17 211.97 1194.05 224.966L1183.1 225.992C1188.58 211.172 1196.9 200.114 1208.07 192.818C1219.47 185.522 1232.47 181.874 1247.06 181.874C1259.83 181.874 1271.34 184.838 1281.6 190.766C1292.09 196.694 1300.41 204.902 1306.57 215.39C1312.72 225.878 1315.8 237.848 1315.8 251.3V371H1277.15V261.902C1277.15 252.554 1275.44 244.688 1272.02 238.304C1268.83 231.692 1264.27 226.676 1258.34 223.256C1252.64 219.608 1245.92 217.784 1238.17 217.784C1230.41 217.784 1223.57 219.608 1217.65 223.256C1211.72 226.676 1207.04 231.692 1203.62 238.304C1200.2 244.916 1198.49 252.782 1198.49 261.902V371H1160.19V261.902C1160.19 252.554 1158.48 244.688 1155.06 238.304C1151.87 231.692 1147.31 226.676 1141.38 223.256C1135.68 219.608 1128.84 217.784 1120.86 217.784C1113.11 217.784 1106.27 219.608 1100.34 223.256C1094.41 226.676 1089.74 231.692 1086.32 238.304C1083.13 244.916 1081.53 252.782 1081.53 261.902V371H1042.88Z" fill="white"/>
<path d="M900.57 375.104C888.03 375.104 876.972 372.938 867.396 368.606C858.048 364.046 850.752 357.89 845.508 350.138C840.264 342.158 837.642 332.81 837.642 322.094C837.642 312.062 839.808 303.056 844.14 295.076C848.7 287.096 855.654 280.37 865.002 274.898C874.35 269.426 886.092 265.55 900.228 263.27L964.524 252.668V283.106L907.752 293.024C897.492 294.848 889.968 298.154 885.18 302.942C880.392 307.502 877.998 313.43 877.998 320.726C877.998 327.794 880.62 333.608 885.864 338.168C891.336 342.5 898.29 344.666 906.726 344.666C917.214 344.666 926.334 342.386 934.086 337.826C942.066 333.266 948.222 327.224 952.554 319.7C956.886 311.948 959.052 303.398 959.052 294.05V246.512C959.052 237.392 955.632 229.982 948.792 224.282C942.18 218.354 933.288 215.39 922.116 215.39C911.856 215.39 902.85 218.126 895.098 223.598C887.574 228.842 881.988 235.682 878.34 244.118L846.192 228.044C849.612 218.924 855.198 210.944 862.95 204.104C870.702 197.036 879.708 191.564 889.968 187.688C900.456 183.812 911.514 181.874 923.142 181.874C937.734 181.874 950.616 184.61 961.788 190.082C973.188 195.554 981.966 203.192 988.122 212.996C994.506 222.572 997.698 233.744 997.698 246.512V371H960.762V337.484L968.628 338.51C964.296 346.034 958.71 352.532 951.87 358.004C945.258 363.476 937.62 367.694 928.956 370.658C920.52 373.622 911.058 375.104 900.57 375.104Z" fill="white"/>
<path d="M727.325 375.104C708.857 375.104 692.441 370.886 678.077 362.45C663.941 353.786 652.655 342.158 644.219 327.566C636.011 312.974 631.907 296.444 631.907 277.976C631.907 259.736 636.011 243.32 644.219 228.728C652.427 214.136 663.713 202.736 678.077 194.528C692.441 186.092 708.857 181.874 727.325 181.874C739.865 181.874 751.607 184.154 762.551 188.714C773.495 193.046 782.957 199.088 790.937 206.84C799.145 214.592 805.187 223.598 809.063 233.858L775.205 249.59C771.329 240.014 765.059 232.376 756.395 226.676C747.959 220.748 738.269 217.784 727.325 217.784C716.837 217.784 707.375 220.406 698.939 225.65C690.731 230.666 684.233 237.848 679.445 247.196C674.657 256.316 672.263 266.69 672.263 278.318C672.263 289.946 674.657 300.434 679.445 309.782C684.233 318.902 690.731 326.084 698.939 331.328C707.375 336.572 716.837 339.194 727.325 339.194C738.497 339.194 748.187 336.344 756.395 330.644C764.831 324.716 771.101 316.85 775.205 307.046L809.063 323.12C805.415 332.924 799.487 341.816 791.279 349.796C783.299 357.548 773.837 363.704 762.893 368.264C751.949 372.824 740.093 375.104 727.325 375.104Z" fill="white"/>
<path d="M0 120C0 63.4315 0 35.1472 17.5736 17.5736C35.1472 0 63.4315 0 120 0H346C402.569 0 430.853 0 448.426 17.5736C466 35.1472 466 63.4315 466 120V346C466 402.569 466 430.853 448.426 448.426C430.853 466 402.569 466 346 466H120C63.4315 466 35.1472 466 17.5736 448.426C0 430.853 0 402.569 0 346V120Z" fill="white" fill-opacity="0.05"/>
<path d="M346 446V466H120V446H346ZM446 346V120C446 91.1506 445.957 71.5255 443.981 56.8291C442.083 42.708 438.736 36.1672 434.284 31.7158C429.833 27.2644 423.292 23.9171 409.171 22.0186C394.475 20.0427 374.849 20 346 20H120C91.1506 20 71.5255 20.0427 56.8291 22.0186C42.708 23.9171 36.1672 27.2644 31.7158 31.7158C27.2644 36.1672 23.9171 42.708 22.0186 56.8291C20.0427 71.5255 20 91.1506 20 120V346C20 374.849 20.0427 394.475 22.0186 409.171C23.9171 423.292 27.2644 429.833 31.7158 434.284C36.1672 438.736 42.708 442.083 56.8291 443.981C71.5255 445.957 91.1506 446 120 446V466C64.3153 466 36.038 466 18.4053 449.237L17.5736 448.426C0 430.853 0 402.569 0 346V120C0 63.4315 0 35.1472 17.5736 17.5736C35.1472 0 63.4315 0 120 0H346C402.569 0 430.853 0 448.426 17.5736C466 35.1472 466 63.4315 466 120V346C466 402.569 466 430.853 448.426 448.426L447.595 449.237C429.962 466 401.685 466 346 466V446C374.849 446 394.475 445.957 409.171 443.981C423.292 442.083 429.833 438.736 434.284 434.284C438.736 429.833 442.083 423.292 443.981 409.171C445.957 394.475 446 374.849 446 346Z" fill="white" fill-opacity="0.3"/>
<path d="M165.926 271.719C167.221 269.817 181.869 276.29 187.039 279.718C192.21 283.146 193.072 287.336 193.503 291.144C193.934 294.953 193.503 383.725 193.503 387.13C193.503 390.535 200.458 407 193.503 407H164.397C160.952 406.35 165.925 393.413 165.926 387.13C165.926 387.13 164.633 273.624 165.926 271.719Z" fill="white"/>
<path d="M128.772 58.1906C134.991 58.1906 140.309 62.476 142.487 68.5413C148.316 63.7199 155.989 60.7907 164.397 60.7906C176.131 60.7906 186.433 66.4936 192.29 75.0858C193.443 75.0537 205.903 74.724 218.27 75.089C231.253 75.4722 242.766 89.1486 243.905 104.121C245.043 119.093 233.984 126.235 221.747 126.22C214.926 126.211 205.722 119.323 205.672 119.286C205.672 119.286 200.023 112.787 196.548 117.12C193.072 121.452 198.721 122.319 199.59 125.352C199.83 128.701 190.128 132.87 181.39 135.935L181.341 136.184C181.341 136.184 168.742 147.884 169.176 169.982C170.48 186.014 178.102 195.547 191.334 195.547C195.411 195.547 200.555 194.073 205.723 192.036C205.816 191.824 205.97 191.626 206.193 191.445C213.95 185.167 214.305 146.15 253.898 146.15C288.06 146.15 295.784 174.419 306.169 193.15C328.4 205.295 338.596 215.912 346.438 240.61C353.25 268.635 350.049 284.177 349.918 291.313C350.325 297.012 349.909 383.765 349.909 387.13C349.909 390.535 356.864 407 349.909 407H320.804C317.358 406.35 322.332 393.413 322.332 387.13C322.332 387.13 321.698 331.238 321.765 297.238C316.502 295.443 311.267 293.29 307.77 291.74C299.95 288.274 286.482 283.074 275.62 278.308C264.759 273.542 253.595 267.233 246.512 276.14C242.463 281.233 244.14 283.687 243.948 292.084C244.292 302.375 243.9 383.87 243.9 387.13C243.9 390.535 250.855 407 243.9 407H214.795C211.349 406.35 216.323 393.413 216.323 387.13C216.323 387.13 215.627 325.949 215.769 292.669C215.538 291.841 215.357 290.955 215.23 290.007C210.885 273.108 196.548 267.474 196.548 267.474L196.568 267.325C182.361 263.348 159.461 255.618 149.626 244.944C134.42 228.478 126.599 218.079 123.558 191.215C120.516 164.35 123.558 133.297 123.558 121.02C123.558 108.743 125.297 104.554 130.51 91.989C130.659 91.6293 130.796 91.2792 130.932 90.9433C130.227 91.0585 129.506 91.1213 128.772 91.1213C120.614 91.1212 114 83.7488 114 74.6552C114 65.5618 120.614 58.1907 128.772 58.1906Z" fill="white"/>
<path d="M270.511 290.734C271.789 289.104 286.268 294.649 291.378 297.584C296.488 300.519 297.339 304.106 297.765 307.367C298.191 310.63 297.765 385.019 297.765 387.934C297.766 390.85 304.638 406.566 297.765 406.566H269.002C265.597 406.01 270.408 393.314 270.408 387.934C270.408 387.934 269.234 292.367 270.511 290.734Z" fill="white"/>
<path d="M183.515 59.9245C186.138 57.9556 187.424 57.757 190.465 58.1906C193.506 58.6242 203.064 68.5891 200.893 68.5906H194.811C193.942 65.9909 187.425 60.7914 183.515 59.9245Z" fill="white"/>
</svg>
