<svg width="163" height="231" viewBox="0 0 163 231" fill="none" xmlns="http://www.w3.org/2000/svg">
<path fill-rule="evenodd" clip-rule="evenodd" d="M55.2608 0.138782C56.7746 0.358627 58.236 0.851487 59.5738 1.59339L59.737 1.68394C60.7208 2.22954 61.6335 2.89459 62.4542 3.664L65.1186 6.1619C65.7356 6.74024 66.3042 7.368 66.8189 8.03893L67.5432 8.98313C67.615 9.07662 67.6783 9.17623 67.7326 9.28081C68.0754 9.94126 68.7548 10.3585 69.4989 10.3655L72.3409 10.3925C72.6657 10.3955 72.9899 10.4221 73.3109 10.4719L74.4451 10.648C75.4462 10.8034 76.434 11.0346 77.4 11.3397L77.488 11.3675C78.417 11.6609 79.3234 12.0218 80.1999 12.4473L81.8122 13.2301L84.5778 15.0953L87.0495 17.2848L88.2779 18.6825C88.9501 19.4475 89.563 20.2627 90.1111 21.121L91.2168 22.8525C91.8643 23.8665 92.419 24.9368 92.8742 26.0505L93.4912 27.5603C93.9587 28.7042 94.3192 29.889 94.568 31.0995L94.9217 32.82C95.1866 34.1085 95.3237 35.4199 95.331 36.7353L95.3359 37.611C95.3441 39.0817 95.1901 40.5489 94.8766 41.9858L94.8357 42.1733C94.5093 43.6693 94.0051 45.1209 93.3337 46.4971L93.2893 46.5882C92.6364 47.9265 91.8231 49.1804 90.8674 50.3223L89.5461 51.9009C89.488 51.9704 89.4218 52.0327 89.349 52.0864L89.197 52.1986C88.2832 52.8733 88.8773 54.3213 90.0016 54.1598L94.2321 54.0182L98.6149 54.3121L102.732 55.0494L106.567 56.2135L110.096 57.7682L113.297 59.6637L116.262 61.9186L119.194 64.8441C119.864 65.5133 120.486 66.2293 121.055 66.9867L123.798 70.6363L127.063 76.1822L129 80.0272C130.66 83.3203 133.197 86.0905 136.332 88.0319L137.083 88.4967L141.7 91.9342L145.783 95.7154L149.155 99.6793L151.625 103.32L153.796 107.268L156.941 115.102C157.353 116.128 157.679 117.186 157.916 118.266L159.719 126.477L160.824 136.837L160.881 143.271L160.394 151.117L160.384 207.136C160.384 208.742 160.577 210.342 160.959 211.902L161.843 215.508L162.138 218.211C162.23 219.056 162.239 219.909 162.166 220.756L162.144 221C162.077 221.773 161.927 222.536 161.697 223.277L161.67 223.362C161.428 224.142 161.092 224.889 160.669 225.587L160.613 225.679C160.202 226.358 159.705 226.981 159.134 227.534C158.541 228.108 157.873 228.6 157.148 228.997L157.119 229.013C156.338 229.442 155.5 229.758 154.63 229.952L154.41 230.002C153.621 230.178 152.816 230.268 152.007 230.269L134.546 230.301L133.565 230.186C132.983 230.118 132.411 229.981 131.861 229.779C131.083 229.493 130.359 229.08 129.717 228.555L127.988 227.143C127.914 227.083 127.853 227.01 127.808 226.926C127.578 226.502 127.006 226.416 126.661 226.753L125.916 227.482C125.824 227.571 125.722 227.649 125.611 227.713L124.489 228.356C123.796 228.754 123.057 229.067 122.289 229.289C121.412 229.542 120.505 229.674 119.592 229.682L100.692 229.836C99.8118 229.843 98.9325 229.769 98.0653 229.616L97.2675 229.476C96.4286 229.328 95.6154 229.059 94.8531 228.679L93.9054 228.207C93.8856 228.197 93.8671 228.185 93.8504 228.17C93.7426 228.078 93.5817 228.085 93.4824 228.186L93.3259 228.346C93.2909 228.382 93.2508 228.412 93.2069 228.436L92.0959 229.045C91.3519 229.452 90.5542 229.753 89.7263 229.938L89.4521 230C88.6575 230.177 87.8456 230.267 87.0313 230.266L70.0443 230.252C69.1375 230.251 68.2359 230.114 67.3696 229.846L66.1722 229.476C65.8377 229.372 65.5266 229.205 65.2561 228.982L63.3682 227.429C63.2999 227.373 63.1993 227.381 63.1407 227.448C63.1313 227.458 63.1207 227.467 63.1089 227.475L62.0273 228.199C61.3738 228.636 60.6648 228.983 59.9191 229.232C59.0433 229.525 58.1271 229.677 57.2039 229.685L39.9299 229.835C39.0358 229.842 38.1436 229.751 37.2695 229.563L36.5385 229.406C35.7136 229.228 34.9238 228.915 34.201 228.48C33.6484 228.147 33.1402 227.745 32.6884 227.285L32.572 227.166C32.0576 226.642 31.6097 226.056 31.2382 225.423L31.1433 225.261C30.7838 224.647 30.4966 223.994 30.2876 223.315C30.0389 222.506 29.903 221.667 29.8837 220.822L29.8507 219.379C29.8218 218.113 29.9157 216.847 30.1311 215.599L31.0917 210.032C31.293 208.865 31.3903 207.684 31.3826 206.5L31.0368 153.386L31.269 138.882C31.3167 135.901 29.8683 133.094 27.4111 131.406C27.0326 131.146 26.6747 130.857 26.3408 130.542L23.4743 127.835L16.9274 120.228L13.3776 115.136L10.6852 110.12L8.42055 104.212L6.77602 97.6354L5.65395 90.0504L4.99379 80.941L4.89418 67.4615L5.75161 43.0582L6.32192 38.0943L6.5224 37.3228C7.16958 34.8322 6.40741 32.1868 4.53426 30.4224C4.02638 29.944 3.59237 29.3928 3.24646 28.7868L2.42771 27.3526C1.55585 25.8253 0.911198 24.1791 0.514085 22.4659L0.487948 22.3531C0.0818172 20.601 -0.0720316 18.7999 0.0310602 17.0043L0.0347307 16.9404C0.137119 15.1571 0.494793 13.3976 1.09683 11.7159L1.14801 11.5729C1.7225 9.96806 2.52662 8.455 3.53527 7.0809C4.56766 5.67447 5.80303 4.42901 7.20102 3.38521L7.96605 2.81402C8.80716 2.18601 9.71904 1.65883 10.683 1.24329C11.3442 0.958251 12.0273 0.726879 12.7256 0.551411L12.8241 0.526667C13.7204 0.30145 14.6359 0.161358 15.5586 0.108256L15.9366 0.086499C17.1092 0.0190101 18.2857 0.0800618 19.4451 0.268564C20.5972 0.455893 21.7255 0.767978 22.8101 1.19931L23.8693 1.6205C24.2598 1.7758 24.6327 1.97209 24.9818 2.2061C26.4929 3.21905 28.3848 3.48373 30.1159 2.92434L31.2595 2.55478C31.6949 2.41407 32.1411 2.3091 32.5936 2.24091L35.0509 1.8706C36.103 1.71207 37.166 1.63773 38.2298 1.6483L40.4973 1.67082C41.0656 1.67646 41.6326 1.72795 42.1927 1.82479L43.2838 2.01342C44.9747 2.30578 46.7148 2.0059 48.2103 1.16436C48.9428 0.752157 49.7398 0.466794 50.5675 0.320341L51.3369 0.184206C52.602 -0.0396297 53.8947 -0.0596103 55.166 0.125021L55.2608 0.138782ZM64.0862 57.2785C63.9428 57.412 63.7886 57.5335 63.6253 57.6416L62.5984 58.3214C61.7703 58.8697 60.8992 59.3502 59.9937 59.7583L55.9321 61.5889C54.6013 62.1887 53.4695 63.1564 52.6703 64.378C52.465 64.6917 52.283 65.0201 52.1259 65.3605L51.0885 67.607L50.2321 70.4391L49.7291 73.5377L49.6833 74.6493C49.6391 75.7201 49.7009 76.7926 49.8677 77.8512L49.9288 78.239C50.0318 78.8927 50.1903 79.5364 50.4026 80.1631L50.6493 80.8918C50.8144 81.3795 51.0432 81.8433 51.3297 82.2712L51.6061 82.6839C51.8791 83.0917 52.2346 83.4377 52.6496 83.6996C53.0431 83.9479 53.4821 84.1155 53.9409 84.1927L54.1297 84.2244C54.6737 84.316 55.23 84.3058 55.7703 84.1945L56.0011 84.147C57.8633 83.7636 59.4135 82.4806 60.1384 80.723L62.6891 74.5381C63.0266 73.7199 63.4228 72.9272 63.8748 72.1663L66.3113 68.0649C66.8345 67.1841 67.4247 66.3449 68.0765 65.5545L69.528 63.7945L72.2145 61.2262L74.9293 59.19L74.9623 59.1709C75.6649 58.7636 75.3232 57.6863 74.5143 57.7584L73.3249 57.697C72.2669 57.6423 71.2154 57.4981 70.1817 57.266L69.1943 57.0442C68.9665 56.9931 68.7428 56.9255 68.5248 56.8419L67.7875 56.5594C66.5177 56.0728 65.0815 56.3518 64.0862 57.2785Z" fill="black"/>
<path d="M39.6295 139.173C40.4234 138.004 49.4002 141.983 52.569 144.089C55.7375 146.194 56.2658 148.769 56.5299 151.11C56.7939 153.45 56.5299 207.999 56.5299 210.091C56.5303 212.185 60.792 222.301 56.5299 222.301H38.693C36.5812 221.902 39.6294 213.953 39.6295 210.091C39.6295 210.091 38.8372 140.348 39.6295 139.173Z" fill="white"/>
<path d="M16.86 7.96353C20.6715 7.96353 23.9304 10.5968 25.2653 14.3239C28.8378 11.3611 33.5402 9.56123 38.693 9.56118C45.8837 9.5612 52.1977 13.0656 55.7868 18.3454C56.4936 18.3256 64.1294 18.123 71.7086 18.3473C79.6651 18.5828 86.7208 26.9867 87.4186 36.1872C88.1161 45.3871 81.3388 49.7757 73.8395 49.7663C69.66 49.7609 64.0203 45.53 63.9879 45.5055C63.9879 45.5055 60.5261 41.5119 58.3961 44.1745C56.2662 46.8369 59.7278 47.3694 60.2604 49.2331C60.4074 51.291 54.4618 53.8527 49.1071 55.736L49.0768 55.8893C49.0634 55.9018 41.3557 63.0905 41.6217 76.6579C42.4204 86.5091 47.0919 92.3666 55.2008 92.3669C57.6991 92.3669 60.8521 91.4609 64.0192 90.2096C64.076 90.079 64.1705 89.9572 64.3073 89.8463C69.0609 85.9881 69.2785 62.0135 93.5426 62.0133C114.478 62.0133 119.212 79.384 125.577 90.8942C139.2 98.3571 145.45 104.881 150.256 120.057C154.431 137.278 152.468 146.829 152.388 151.214C152.637 154.717 152.382 208.023 152.382 210.091C152.383 212.185 156.644 222.301 152.382 222.301H134.546C132.434 221.902 135.482 213.953 135.482 210.091C135.482 210.091 135.093 175.747 135.134 154.854C131.909 153.751 128.701 152.428 126.558 151.476C121.765 149.346 113.511 146.151 106.855 143.222C100.199 140.293 93.3569 136.417 89.0163 141.89C86.5349 145.019 87.5626 146.527 87.445 151.687C87.656 158.011 87.4157 208.088 87.4157 210.091C87.4161 212.185 91.6779 222.301 87.4157 222.301H69.5788C67.467 221.902 70.5151 213.953 70.5153 210.091C70.5153 210.091 70.0889 172.498 70.1754 152.047C70.0345 151.539 69.9231 150.994 69.8454 150.411C67.1828 140.027 58.3961 136.565 58.3961 136.565L58.4088 136.473C49.7018 134.029 35.6676 129.279 29.6403 122.72C20.3213 112.602 15.5286 106.212 13.6647 89.7047C11.8009 73.1968 13.6647 54.1151 13.6647 46.5709C13.6647 39.0271 14.7304 36.4531 17.9254 28.7321C18.0168 28.5111 18.1008 28.2959 18.1842 28.0895C17.7519 28.1604 17.3099 28.1989 16.86 28.1989C11.8603 28.1989 7.80731 23.6686 7.80727 18.0807C7.80746 12.493 11.8604 7.96354 16.86 7.96353Z" fill="white"/>
<path d="M103.724 150.858C104.508 149.856 113.38 153.263 116.512 155.067C119.643 156.87 120.165 159.074 120.426 161.078C120.687 163.083 120.426 208.795 120.426 210.586C120.428 212.379 124.638 222.034 120.426 222.034H102.799C100.713 221.693 103.66 213.892 103.661 210.586C103.661 210.586 102.941 151.861 103.724 150.858Z" fill="white"/>
<path d="M50.4088 9.02896C52.0167 7.81908 52.8049 7.69709 54.6686 7.96353C56.5324 8.23013 62.3893 14.3532 61.0592 14.3542H57.3317C56.7992 12.7567 52.8051 9.56169 50.4088 9.02896Z" fill="white"/>
</svg>
