<svg width="260" height="260" viewBox="0 0 260 260" fill="none" xmlns="http://www.w3.org/2000/svg">
<path d="M0 66.9528C0 35.3909 0 19.61 9.80501 9.80501C19.61 0 35.3909 0 66.9528 0H193.047C224.609 0 240.39 0 250.195 9.80501C260 19.61 260 35.3909 260 66.9528V193.047C260 224.609 260 240.39 250.195 250.195C240.39 260 224.609 260 193.047 260H66.9528C35.3909 260 19.61 260 9.80501 250.195C0 240.39 0 224.609 0 193.047V66.9528Z" fill="black"/>
<path d="M92.5765 151.603C93.2993 150.541 101.472 154.153 104.357 156.066C107.242 157.978 107.722 160.316 107.963 162.441C108.203 164.566 107.963 214.096 107.963 215.995C107.963 217.895 111.843 227.082 107.963 227.082H91.7239C89.8013 226.719 92.5764 219.501 92.5765 215.995C92.5765 215.995 91.8551 152.666 92.5765 151.603Z" fill="white"/>
<path d="M71.8469 32.4669C75.3169 32.4669 78.2838 34.8579 79.4991 38.2419C82.7516 35.5518 87.0327 33.9176 91.7239 33.9175C98.2703 33.9175 104.019 37.0994 107.286 41.8934C107.93 41.8754 114.881 41.6915 121.782 41.8952C129.025 42.109 135.449 49.7395 136.084 58.0934C136.719 66.4468 130.549 70.4316 123.722 70.4229C119.916 70.418 114.781 66.5751 114.753 66.5543C114.753 66.5543 111.601 62.9281 109.662 65.3457C107.723 67.7632 110.874 68.2466 111.359 69.9388C111.493 71.8074 106.08 74.1333 101.205 75.8433L101.177 75.9826C101.177 75.9826 94.1478 82.5104 94.3902 94.84C95.1174 103.785 99.3703 109.103 106.753 109.103C109.027 109.103 111.898 108.281 114.781 107.145C114.833 107.026 114.919 106.916 115.043 106.815C119.371 103.312 119.569 81.5431 141.66 81.543C160.72 81.543 165.03 97.3152 170.824 107.766C183.227 114.542 188.916 120.466 193.292 134.246C197.093 149.882 195.306 158.554 195.233 162.535C195.46 165.715 195.228 214.118 195.228 215.995C195.228 217.895 199.109 227.082 195.228 227.082H178.989C177.067 226.719 179.842 219.501 179.842 215.995C179.842 215.995 179.488 184.811 179.525 165.841C176.589 164.84 173.668 163.638 171.717 162.774C167.354 160.84 159.84 157.939 153.779 155.279C147.72 152.62 141.491 149.1 137.539 154.07C135.28 156.911 136.215 158.28 136.108 162.965C136.3 168.707 136.082 214.177 136.082 215.995C136.082 217.895 139.962 227.082 136.082 227.082H119.843C117.92 226.719 120.695 219.501 120.695 215.995C120.695 215.995 120.307 181.86 120.386 163.291C120.258 162.83 120.156 162.335 120.085 161.806C117.661 152.378 109.662 149.235 109.662 149.235L109.673 149.151C101.746 146.933 88.9695 142.619 83.4822 136.664C74.9981 127.477 70.6347 121.675 68.9378 106.686C67.2409 91.6975 68.9378 74.3716 68.9378 67.5217C68.9378 60.672 69.9081 58.335 72.8168 51.3243C72.9001 51.1236 72.9766 50.9283 73.0524 50.7409C72.6589 50.8052 72.2565 50.8402 71.8469 50.8402C67.2951 50.8402 63.6051 46.7268 63.6051 41.6531C63.6053 36.5795 67.2952 32.4669 71.8469 32.4669Z" fill="white"/>
<path d="M150.929 162.212C151.642 161.303 159.72 164.396 162.572 166.034C165.422 167.672 165.897 169.673 166.135 171.493C166.373 173.313 166.135 214.817 166.135 216.444C166.135 218.071 169.97 226.839 166.135 226.839H150.087C148.187 226.529 150.871 219.446 150.871 216.444C150.871 216.444 150.216 163.123 150.929 162.212Z" fill="white"/>
<path d="M102.39 33.4343C103.854 32.3357 104.572 32.225 106.268 32.4669C107.965 32.7088 113.297 38.2686 112.086 38.2694H108.693C108.208 36.819 104.572 33.918 102.39 33.4343Z" fill="white"/>
</svg>
